<mxfile host="app.diagrams.net" modified="2020-11-27T07:53:47.174Z" agent="5.0 (Macintosh; Intel Mac OS X 10_14_6) AppleWebKit/537.36 (KHTML, like Gecko) Chrome/86.0.4240.111 Safari/537.36" etag="D8bRN0QXFv6rems0K2NL" version="13.10.4" type="github">
  <diagram id="CRy8dmtSxsvZCO5glhTb" name="Page-1">
    <mxGraphModel dx="1077" dy="570" grid="1" gridSize="10" guides="1" tooltips="1" connect="1" arrows="1" fold="1" page="1" pageScale="1" pageWidth="827" pageHeight="1169" math="0" shadow="0">
      <root>
        <mxCell id="0" />
        <mxCell id="1" parent="0" />
        <mxCell id="RjovEn_DT_FDCInE2qvv-1" value="" style="whiteSpace=wrap;html=1;aspect=fixed;" vertex="1" parent="1">
          <mxGeometry x="170" y="110" width="400" height="400" as="geometry" />
        </mxCell>
        <mxCell id="RjovEn_DT_FDCInE2qvv-2" value="Actor" style="shape=umlActor;verticalLabelPosition=bottom;verticalAlign=top;html=1;outlineConnect=0;" vertex="1" parent="1">
          <mxGeometry x="80" y="150" width="30" height="60" as="geometry" />
        </mxCell>
        <mxCell id="RjovEn_DT_FDCInE2qvv-3" value="Actor" style="shape=umlActor;verticalLabelPosition=bottom;verticalAlign=top;html=1;outlineConnect=0;" vertex="1" parent="1">
          <mxGeometry x="80" y="270" width="30" height="60" as="geometry" />
        </mxCell>
        <mxCell id="RjovEn_DT_FDCInE2qvv-4" value="管理中心" style="ellipse;whiteSpace=wrap;html=1;" vertex="1" parent="1">
          <mxGeometry x="294" y="390" width="120" height="80" as="geometry" />
        </mxCell>
        <mxCell id="RjovEn_DT_FDCInE2qvv-5" value="就餐卡" style="ellipse;whiteSpace=wrap;html=1;" vertex="1" parent="1">
          <mxGeometry x="290" y="140" width="120" height="70" as="geometry" />
        </mxCell>
        <mxCell id="RjovEn_DT_FDCInE2qvv-7" value="Actor" style="shape=umlActor;verticalLabelPosition=bottom;verticalAlign=top;html=1;outlineConnect=0;" vertex="1" parent="1">
          <mxGeometry x="650" y="360" width="30" height="60" as="geometry" />
        </mxCell>
        <mxCell id="RjovEn_DT_FDCInE2qvv-8" value="收款机" style="ellipse;whiteSpace=wrap;html=1;" vertex="1" parent="1">
          <mxGeometry x="294" y="280" width="120" height="80" as="geometry" />
        </mxCell>
        <mxCell id="RjovEn_DT_FDCInE2qvv-11" value="就餐者" style="text;html=1;align=center;verticalAlign=middle;resizable=0;points=[];autosize=1;" vertex="1" parent="1">
          <mxGeometry x="70" y="130" width="50" height="20" as="geometry" />
        </mxCell>
        <mxCell id="RjovEn_DT_FDCInE2qvv-14" value="服务员" style="text;html=1;strokeColor=none;fillColor=none;align=center;verticalAlign=middle;whiteSpace=wrap;rounded=0;" vertex="1" parent="1">
          <mxGeometry x="75" y="250" width="40" height="20" as="geometry" />
        </mxCell>
        <mxCell id="RjovEn_DT_FDCInE2qvv-16" value="管理员" style="text;html=1;strokeColor=none;fillColor=none;align=center;verticalAlign=middle;whiteSpace=wrap;rounded=0;" vertex="1" parent="1">
          <mxGeometry x="645" y="330" width="40" height="20" as="geometry" />
        </mxCell>
        <mxCell id="RjovEn_DT_FDCInE2qvv-18" value="" style="endArrow=none;html=1;exitX=1;exitY=0.3333333333333333;exitDx=0;exitDy=0;exitPerimeter=0;entryX=0;entryY=0.5;entryDx=0;entryDy=0;" edge="1" parent="1" source="RjovEn_DT_FDCInE2qvv-2" target="RjovEn_DT_FDCInE2qvv-5">
          <mxGeometry width="50" height="50" relative="1" as="geometry">
            <mxPoint x="120" y="210" as="sourcePoint" />
            <mxPoint x="170" y="160" as="targetPoint" />
          </mxGeometry>
        </mxCell>
        <mxCell id="RjovEn_DT_FDCInE2qvv-19" value="" style="endArrow=none;html=1;entryX=0;entryY=0.5;entryDx=0;entryDy=0;exitX=1;exitY=0.3333333333333333;exitDx=0;exitDy=0;exitPerimeter=0;" edge="1" parent="1" source="RjovEn_DT_FDCInE2qvv-3" target="RjovEn_DT_FDCInE2qvv-8">
          <mxGeometry width="50" height="50" relative="1" as="geometry">
            <mxPoint x="110" y="350" as="sourcePoint" />
            <mxPoint x="180.71067811865476" y="300" as="targetPoint" />
          </mxGeometry>
        </mxCell>
        <mxCell id="RjovEn_DT_FDCInE2qvv-20" value="" style="endArrow=none;html=1;entryX=0;entryY=0.3333333333333333;entryDx=0;entryDy=0;entryPerimeter=0;exitX=1;exitY=0.5;exitDx=0;exitDy=0;" edge="1" parent="1" source="RjovEn_DT_FDCInE2qvv-4" target="RjovEn_DT_FDCInE2qvv-7">
          <mxGeometry width="50" height="50" relative="1" as="geometry">
            <mxPoint x="580" y="450" as="sourcePoint" />
            <mxPoint x="630" y="400" as="targetPoint" />
          </mxGeometry>
        </mxCell>
        <mxCell id="RjovEn_DT_FDCInE2qvv-21" value="Use" style="endArrow=open;endSize=12;dashed=1;html=1;exitX=0.5;exitY=1;exitDx=0;exitDy=0;entryX=0.5;entryY=0;entryDx=0;entryDy=0;" edge="1" parent="1" source="RjovEn_DT_FDCInE2qvv-5" target="RjovEn_DT_FDCInE2qvv-8">
          <mxGeometry width="160" relative="1" as="geometry">
            <mxPoint x="370" y="220" as="sourcePoint" />
            <mxPoint x="530" y="220" as="targetPoint" />
          </mxGeometry>
        </mxCell>
      </root>
    </mxGraphModel>
  </diagram>
</mxfile>
